<?xml version="1.0" encoding="iso-8859-1"?>
<!-- Generator: Adobe Illustrator 19.0.0, SVG Export Plug-In . SVG Version: 6.00 Build 0)  -->
<svg version="1.1" id="Capa_1" xmlns="http://www.w3.org/2000/svg" xmlns:xlink="http://www.w3.org/1999/xlink" x="0px" y="0px"
	 viewBox="0 0 512.359 512.359" style="enable-background:new 0 0 512.359 512.359;" xml:space="preserve">
<rect x="17.496" y="231.099" transform="matrix(-0.7072 -0.707 0.707 -0.7072 244.9275 590.2969)" style="fill:#E8EAE9;" width="454.396" height="26.666"/>
<g>
	<polygon style="fill:#415A6B;" points="132.446,46.933 0.179,0 47.113,132.267 	"/>
	<polygon style="fill:#415A6B;" points="363.913,363.733 346.846,430.933 427.913,512 444.979,444.8 512.179,427.733 
		431.113,346.667 	"/>
	<path style="fill:#415A6B;" d="M308.446,311.467c-74.667,74.667-165.333,134.4-269.867,177.067l-6.4-16
		c204.8-83.2,353.067-231.467,440.533-440.533l16,6.4C443.913,145.067,383.113,236.8,308.446,311.467z"/>
</g>
<path style="fill:#8AD7F8;" d="M510.046,20.267c-18.133,39.467-58.667,53.333-118.4,41.6c-43.733-2.133-91.733,24.533-112,88.533
	c-9.6,30.933-21.333,59.733-43.733,85.333c-24.533,22.4-53.333,34.133-84.267,43.733c-64,20.267-91.733,68.267-88.533,112
	c10.667,59.733-2.133,100.267-41.6,118.4c-14.933,8.533-30.933-6.4-9.6-21.333c14.933-14.933,19.2-36.267,9.6-66.133
	C2.313,368,10.846,316.8,52.446,270.933c22.4-26.667,52.267-48,89.6-59.733c18.133-5.333,34.133-12.8,46.933-25.6
	c12.8-12.8,20.267-28.8,25.6-46.933c11.733-37.333,33.067-66.133,59.733-89.6c45.867-41.6,96-49.067,150.4-29.867
	c29.867,9.6,51.2,6.4,66.133-9.6C503.646-10.667,517.513,5.333,510.046,20.267z"/>
<g>
</g>
<g>
</g>
<g>
</g>
<g>
</g>
<g>
</g>
<g>
</g>
<g>
</g>
<g>
</g>
<g>
</g>
<g>
</g>
<g>
</g>
<g>
</g>
<g>
</g>
<g>
</g>
<g>
</g>
</svg>
