<?xml version="1.0" encoding="iso-8859-1"?>
<!-- Generator: Adobe Illustrator 19.0.0, SVG Export Plug-In . SVG Version: 6.00 Build 0)  -->
<svg version="1.1" id="Capa_1" xmlns="http://www.w3.org/2000/svg" xmlns:xlink="http://www.w3.org/1999/xlink" x="0px" y="0px"
	 viewBox="0 0 511.998 511.998" style="enable-background:new 0 0 511.998 511.998;" xml:space="preserve">
<linearGradient id="SVGID_1_" gradientUnits="userSpaceOnUse" x1="55.9991" y1="258.0001" x2="455.9991" y2="258.0001" gradientTransform="matrix(1 0 0 -1 0 513.9991)">
	<stop  offset="0" style="stop-color:#80D8FF"/>
	<stop  offset="1" style="stop-color:#EA80FC"/>
</linearGradient>
<path style="fill:url(#SVGID_1_);" d="M443.778,77.572L263.884,1.619c-4.968-2.134-10.689-2.182-15.769,0L68.22,77.572
	c-7.407,3.127-12.221,10.384-12.221,18.424v65.858c0,139.816,70.966,270.589,188.805,346.703c0.012,0.008,0.025,0.016,0.037,0.024
	c7.364,4.757,15.578,4.352,22.316,0c0.012-0.008,0.025-0.016,0.037-0.024c117.926-76.17,188.805-206.995,188.805-346.703V95.996
	C455.999,87.956,451.185,80.699,443.778,77.572z M95.999,161.854v-52.593l140-59.109v402.819
	C146.619,381.431,95.999,274,95.999,161.854z M415.999,161.854c0,112.043-50.544,219.515-140,291.116V50.152l140,59.109V161.854z"/>
<g>
</g>
<g>
</g>
<g>
</g>
<g>
</g>
<g>
</g>
<g>
</g>
<g>
</g>
<g>
</g>
<g>
</g>
<g>
</g>
<g>
</g>
<g>
</g>
<g>
</g>
<g>
</g>
<g>
</g>
</svg>
